<?xml version="1.0" standalone="no"?>
 <!DOCTYPE svg PUBLIC "-//W3C//DTD SVG 1.1//EN" 
 "http://www.w3.org/Graphics/SVG/1.1/DTD/svg11.dtd"> 
<svg xmlns="http://www.w3.org/2000/svg" version="1.1" 
    width="18.7274cm" height="12.3012cm" viewBox="0 0 73730 48430 ">
<title>SVG Picture created as angelina72_middleplate-brd.svg date 2019/08/08 07:39:31 </title>
  <desc>Picture generated by PCBNEW </desc>
<g style="fill:#000000; fill-opacity:1;stroke:#000000; stroke-opacity:1;
stroke-linecap:round; stroke-linejoin:round; "
 transform="translate(0 0) scale(1 1)">
</g>
<g style="fill:#000000; fill-opacity:0.0; 
stroke:#000000; stroke-width:-0.000393701; stroke-opacity:1; 
stroke-linecap:round; stroke-linejoin:round;">
</g>
<g style="fill:#000000; fill-opacity:0.0; 
stroke:#000000; stroke-width:19.685; stroke-opacity:1; 
stroke-linecap:round; stroke-linejoin:round;">
<path d="M14782 3946
L39793 3946
" />
<path d="M34 35175
L4188 42368
" />
<path d="M7601 47905
L18713 41498
" />
<path d="M18900 41448
L37611 41448
" />
<path d="M18900.7 41448.4 A375 375 0.0 0 0 18713.2 41498.6 " />
<path d="M37676 41454
L55259 44557
" />
<path d="M55473 44405
L56710 37388
" />
<path d="M56960 37051
L60283 37637
" />
<path d="M60284 37637.7 A187.5 187.5 0.0 0 0 60501.2 37485.6 " />
<path d="M60501 37485
L61705 30653
" />
<path d="M61923 30501
L64138 30892
" />
<path d="M64356 30740
L65593 23723
" />
<path d="M65441 23506
L64702 23375
" />
<path d="M61923.1 30501.4 A187.499 187.499 0.0 0 0 61705.9 30653.5 " />
<path d="M64138.9 30892.2 A187.498 187.498 0.0 0 0 64356.1 30740.1 " />
<path d="M65593.4 23723.3 A187.502 187.502 0.0 0 0 65441.3 23506.1 " />
<path d="M64550.6 23158.6 A187.5 187.5 0.0 0 0 64702.7 23375.9 " />
<path d="M7345.23 47836.8 A187.5 187.5 0.0 0 0 7601.36 47905.4 " />
<path d="M64550 23158
L65787 16141
" />
<path d="M66005 15989
L67851 16315
" />
<path d="M69165 9940
L69305 9146
" />
<path d="M69153 8929
L61952 7659
" />
<path d="M61952 7659
L47180 5054
" />
<path d="M47028 4837
L47093 4468
" />
<path d="M46941 4251
L40293 3078
" />
<path d="M40076 3231
L39977 3791
" />
<path d="M66005 15989.8 A187.498 187.498 0.0 0 0 65787.8 16141.9 " />
<path d="M67851.5 16315.4 A187.501 187.501 0.0 0 0 68068.8 16163.3 " />
<path d="M69306 9146.54 A187.5 187.5 0.0 0 0 69153.9 8929.33 " />
<path d="M47028.3 4837.6 A187.503 187.503 0.0 0 0 47180.4 5054.81 " />
<path d="M47093.4 4468.29 A187.498 187.498 0.0 0 0 46941.3 4251.09 " />
<path d="M40293.9 3078.96 A187.497 187.497 0.0 0 0 40076.7 3231.05 " />
<path d="M39793.1 3946.85 A187.498 187.498 0.0 0 0 39977.7 3791.91 " />
<path d="M37676.9 41454.2 A375.002 375.002 0.0 0 0 37611.8 41448.5 " />
<path d="M55260 44558 A187.545 187.545 0.0 0 0 55473.3 44405.2 " />
<path d="M8464.58 3946.85 A187.504 187.504 0.0 0 0 8277.08 4134.35 " />
<path d="M8277 29982
L8277 4134
" />
<path d="M2975.61 44205.4 A1771.65 1771.65 0.0 0 0 4747.27 47274 " />
<path d="M6944.17 47142.1 A984.254 984.254 0.0 0 0 5599.65 46781.8 " />
<path d="M3828 43713.2 A984.252 984.252 0.0 0 0 4188.26 42368.7 " />
<path d="M2975 44205
L3827 43713
" />
<path d="M4747 47273
L5599 46781
" />
<path d="M10255 1978
L10255 2962
" />
<path d="M9271.17 3946.85 A984.252 984.252 0.0 0 0 10255.4 2962.6 " />
<path d="M13798 1978
L13798 2962
" />
<path d="M70318.3 14741.5 A1771.65 1771.65 0.0 0 0 70933.6 11252 " />
<path d="M69349 14570.6 A984.25 984.25 0.0 0 0 68208.8 15369 " />
<path d="M69165.9 9940.88 A984.25 984.25 0.0 0 0 69964.3 11081.1 " />
<path d="M70318 14741
L69349 14570
" />
<path d="M13798.7 1978.35 A1771.65 1771.65 0.0 0 0 10255.4 1978.35 " />
<path d="M70933 11252
L69964 11081
" />
<path d="M13798.7 2962.6 A984.251 984.251 0.0 0 0 14783 3946.85 " />
<path d="M103 34918
L8089 30307
" />
<path d="M103.592 34918.9 A187.499 187.499 0.0 0 0 34.9631 35175 " />
<path d="M8089.58 30307.6 A375 375 0.0 0 0 8277.08 29982.9 " />
<path d="M8464 3946
L9271 3946
" />
<path d="M7345 47836
L6944 47142
" />
<path d="M56960.3 37051.7 A187.496 187.496 0.0 0 0 56743.1 37203.8 " />
<path d="M56743 37203
L56710 37388
" />
<path d="M68068 16163
L68208 15368
" />
<g >
</g>
<g >
</g>
<g >
</g>
<g >
</g>
<g >
</g>
<g >
</g>
<g >
</g>
<g >
</g>
<g >
</g>
<g >
</g>
<g >
</g>
<g >
</g>
<g >
</g>
<g >
</g>
<g >
</g>
<g >
</g>
<g >
</g>
<g >
</g>
<g >
</g>
<g >
</g>
<g >
</g>
<g >
</g>
<g >
</g>
<g >
</g>
<g >
</g>
<g >
</g>
<g >
</g>
<g >
</g>
<g >
</g>
<g >
</g>
<g >
</g>
<g >
</g>
<g >
</g>
<g >
</g>
<g >
</g>
<g >
</g>
<g >
</g>
<g >
</g>
<g >
</g>
<g >
</g>
<g >
</g>
<g >
</g>
<g >
</g>
<g >
</g>
<g >
</g>
<g >
</g>
<g >
</g>
<g >
</g>
<g >
</g>
<g >
</g>
<g >
</g>
<g >
</g>
</g>
<g style="fill:#000000; fill-opacity:0.0; 
stroke:#000000; stroke-width:47.2441; stroke-opacity:1; 
stroke-linecap:round; stroke-linejoin:round;">
<circle cx="3861.44" cy="45739.7" r="1023.62" /> 
<circle cx="12027.1" cy="1978.35" r="1023.62" /> 
<circle cx="70626" cy="12996.7" r="1023.62" /> 
<path d="M42731 35685
L48270 36661
" />
<path d="M48270 36661
L47294 42201
" />
<path d="M47294 42201
L41754 41224
" />
<path d="M41754 41224
L42731 35685
" />
<path d="M50117 36987
L55656 37964
" />
<path d="M55656 37964
L54680 43503
" />
<path d="M54680 43503
L49140 42526
" />
<path d="M49140 42526
L50117 36987
" />
<path d="M55112 30252
L60652 31229
" />
<path d="M60652 31229
L59675 36768
" />
<path d="M59675 36768
L54136 35792
" />
<path d="M54136 35792
L55112 30252
" />
<path d="M40340 27647
L45880 28624
" />
<path d="M45880 28624
L44903 34164
" />
<path d="M44903 34164
L39363 33187
" />
<path d="M39363 33187
L40340 27647
" />
<path d="M47726 28950
L53266 29926
" />
<path d="M53266 29926
L52289 35466
" />
<path d="M52289 35466
L46750 34489
" />
<path d="M46750 34489
L47726 28950
" />
<path d="M51614 22019
L57153 22996
" />
<path d="M57153 22996
L56177 28536
" />
<path d="M56177 28536
L50637 27559
" />
<path d="M50637 27559
L51614 22019
" />
<path d="M59000 23322
L64539 24299
" />
<path d="M64539 24299
L63563 29838
" />
<path d="M63563 29838
L58023 28861
" />
<path d="M58023 28861
L59000 23322
" />
<path d="M44228 20717
L49767 21694
" />
<path d="M49767 21694
L48790 27233
" />
<path d="M48790 27233
L43251 26257
" />
<path d="M43251 26257
L44228 20717
" />
<path d="M44422 13136
L49962 14112
" />
<path d="M49962 14112
L48985 19652
" />
<path d="M48985 19652
L43445 18675
" />
<path d="M43445 18675
L44422 13136
" />
<path d="M59194 15740
L64734 16717
" />
<path d="M64734 16717
L63757 22257
" />
<path d="M63757 22257
L58218 21280
" />
<path d="M58218 21280
L59194 15740
" />
<path d="M51808 14438
L57348 15415
" />
<path d="M57348 15415
L56371 20954
" />
<path d="M56371 20954
L50831 19978
" />
<path d="M50831 19978
L51808 14438
" />
<path d="M62712 8745
L68252 9722
" />
<path d="M68252 9722
L67275 15261
" />
<path d="M67275 15261
L61736 14285
" />
<path d="M61736 14285
L62712 8745
" />
<path d="M55326 7443
L60866 8419
" />
<path d="M60866 8419
L59889 13959
" />
<path d="M59889 13959
L54350 12982
" />
<path d="M54350 12982
L55326 7443
" />
<path d="M47940 6140
L53480 7117
" />
<path d="M53480 7117
L52503 12657
" />
<path d="M52503 12657
L46964 11680
" />
<path d="M46964 11680
L47940 6140
" />
<path d="M40685 4099
L46224 5076
" />
<path d="M46224 5076
L45247 10616
" />
<path d="M45247 10616
L39708 9639
" />
<path d="M39708 9639
L40685 4099
" />
<path d="M11467 38100
L16338 35288
" />
<path d="M16338 35288
L19150 40159
" />
<path d="M19150 40159
L14279 42972
" />
<path d="M14279 42972
L11467 38100
" />
<path d="M4971 41850
L9843 39038
" />
<path d="M9843 39038
L12655 43909
" />
<path d="M12655 43909
L7784 46722
" />
<path d="M7784 46722
L4971 41850
" />
<path d="M1221 35355
L6093 32543
" />
<path d="M6093 32543
L8905 37414
" />
<path d="M8905 37414
L4034 40227
" />
<path d="M4034 40227
L1221 35355
" />
<path d="M29839 34884
L35464 34884
" />
<path d="M35464 34884
L35464 40509
" />
<path d="M35464 40509
L29839 40509
" />
<path d="M29839 40509
L29839 34884
" />
<path d="M22339 34884
L27964 34884
" />
<path d="M27964 34884
L27964 40509
" />
<path d="M27964 40509
L22339 40509
" />
<path d="M22339 40509
L22339 34884
" />
<path d="M31714 27384
L37339 27384
" />
<path d="M37339 27384
L37339 33009
" />
<path d="M37339 33009
L31714 33009
" />
<path d="M31714 33009
L31714 27384
" />
<path d="M16714 27384
L22339 27384
" />
<path d="M22339 27384
L22339 33009
" />
<path d="M22339 33009
L16714 33009
" />
<path d="M16714 33009
L16714 27384
" />
<path d="M24214 27384
L29839 27384
" />
<path d="M29839 27384
L29839 33009
" />
<path d="M29839 33009
L24214 33009
" />
<path d="M24214 33009
L24214 27384
" />
<path d="M9214 27384
L14839 27384
" />
<path d="M14839 27384
L14839 33009
" />
<path d="M14839 33009
L9214 33009
" />
<path d="M9214 33009
L9214 27384
" />
<path d="M27964 19884
L33589 19884
" />
<path d="M33589 19884
L33589 25509
" />
<path d="M33589 25509
L27964 25509
" />
<path d="M27964 25509
L27964 19884
" />
<path d="M12964 19884
L18589 19884
" />
<path d="M18589 19884
L18589 25509
" />
<path d="M18589 25509
L12964 25509
" />
<path d="M12964 25509
L12964 19884
" />
<path d="M35464 19884
L41089 19884
" />
<path d="M41089 19884
L41089 25509
" />
<path d="M41089 25509
L35464 25509
" />
<path d="M35464 25509
L35464 19884
" />
<path d="M20464 19884
L26089 19884
" />
<path d="M26089 19884
L26089 25509
" />
<path d="M26089 25509
L20464 25509
" />
<path d="M20464 25509
L20464 19884
" />
<path d="M27964 12384
L33589 12384
" />
<path d="M33589 12384
L33589 18009
" />
<path d="M33589 18009
L27964 18009
" />
<path d="M27964 18009
L27964 12384
" />
<path d="M12964 12384
L18589 12384
" />
<path d="M18589 12384
L18589 18009
" />
<path d="M18589 18009
L12964 18009
" />
<path d="M12964 18009
L12964 12384
" />
<path d="M35464 12384
L41089 12384
" />
<path d="M41089 12384
L41089 18009
" />
<path d="M41089 18009
L35464 18009
" />
<path d="M35464 18009
L35464 12384
" />
<path d="M20464 12384
L26089 12384
" />
<path d="M26089 12384
L26089 18009
" />
<path d="M26089 18009
L20464 18009
" />
<path d="M20464 18009
L20464 12384
" />
<path d="M31714 4884
L37339 4884
" />
<path d="M37339 4884
L37339 10509
" />
<path d="M37339 10509
L31714 10509
" />
<path d="M31714 10509
L31714 4884
" />
<path d="M24214 4884
L29839 4884
" />
<path d="M29839 4884
L29839 10509
" />
<path d="M29839 10509
L24214 10509
" />
<path d="M24214 10509
L24214 4884
" />
<path d="M16714 4884
L22339 4884
" />
<path d="M22339 4884
L22339 10509
" />
<path d="M22339 10509
L16714 10509
" />
<path d="M16714 10509
L16714 4884
" />
<path d="M9214 4884
L14839 4884
" />
<path d="M14839 4884
L14839 10509
" />
<path d="M14839 10509
L9214 10509
" />
<path d="M9214 10509
L9214 4884
" />
</g>
<g style="fill:#000000; fill-opacity:0.0; 
stroke:#000000; stroke-width:0.393701; stroke-opacity:1; 
stroke-linecap:round; stroke-linejoin:round;">
<circle cx="12027.1" cy="18946.9" r="433.071" /> 
<circle cx="51000.4" cy="13623.4" r="433.071" /> 
<circle cx="10190.4" cy="37753.3" r="433.071" /> 
<circle cx="34527.1" cy="18946.9" r="433.071" /> 
<circle cx="30777.1" cy="33665.6" r="433.071" /> 
<circle cx="49308" cy="36178.5" r="433.071" /> 
<circle cx="38767.1" cy="5526.85" r="433.071" /> 
<g >
</g>
<g >
</g>
<g >
</g>
<g >
</g>
<g >
</g>
<g >
</g>
<g >
</g>
<g >
</g>
<g >
</g>
<g >
</g>
<g >
</g>
<g >
</g>
<g >
</g>
<g >
</g>
<g >
</g>
<g >
</g>
<g >
</g>
<g >
</g>
<g >
</g>
<g >
</g>
<g >
</g>
<g >
</g>
<g >
</g>
<g >
</g>
<g >
</g>
<g >
</g>
<g >
</g>
<g >
</g>
<g >
</g>
<g >
</g>
<g >
</g>
<g >
</g>
<g >
</g>
<g >
</g>
<g >
</g>
<g >
</g>
<g >
</g>
<g >
</g>
<g >
</g>
<g >
</g>
<g >
</g>
<g >
</g>
<g >
</g>
<g >
</g>
<g >
</g>
<g >
</g>
<g >
</g>
<g >
</g>
<g >
</g>
<g >
</g>
</g> 
</svg>
