<?xml version="1.0" standalone="no"?>
 <!DOCTYPE svg PUBLIC "-//W3C//DTD SVG 1.1//EN" 
 "http://www.w3.org/Graphics/SVG/1.1/DTD/svg11.dtd"> 
<svg xmlns="http://www.w3.org/2000/svg" version="1.1" 
    width="18.7223cm" height="12.3012cm" viewBox="0 0 73710 48430 ">
<title>SVG Picture created as angelina72_bottomplate-brd.svg date 2019/08/10 09:54:25 </title>
  <desc>Picture generated by PCBNEW </desc>
<g style="fill:#000000; fill-opacity:1;stroke:#000000; stroke-opacity:1;
stroke-linecap:round; stroke-linejoin:round; "
 transform="translate(0 0) scale(1 1)">
</g>
<g style="fill:#000000; fill-opacity:0.0; 
stroke:#000000; stroke-width:-0.000393701; stroke-opacity:1; 
stroke-linecap:round; stroke-linejoin:round;">
</g>
<g style="fill:#000000; fill-opacity:0.0; 
stroke:#000000; stroke-width:19.685; stroke-opacity:1; 
stroke-linecap:round; stroke-linejoin:round;">
<path d="M9.95157 35060.9 A375 375 0.0 0 0 60.192 35248.4 " />
<path d="M8072.45 7696.85 A187.5 187.5 0.0 0 0 8259.95 7509.35 " />
<path d="M197.452 7696.85 A187.5 187.5 0.0 0 0 9.95157 7884.35 " />
<path d="M9 7884
L9 35064
" />
<path d="M8072 7696
L197 7696
" />
<path d="M56541 37171
L53217 36585
" />
<path d="M56725 37203
L56693 37388
" />
<path d="M56952 29437
L58190 22420
" />
<path d="M61902 7844
L61762 8638
" />
<path d="M53065.4 36367.9 A187.5 187.5 0.0 0 0 53217.5 36585.1 " />
<path d="M54519.9 29199.1 A187.5 187.5 0.0 0 0 54302.7 29351.2 " />
<path d="M56735.7 29589.8 A187.501 187.501 0.0 0 0 56952.9 29437.7 " />
<path d="M58190.2 22420.9 A187.5 187.5 0.0 0 0 58038.1 22203.7 " />
<path d="M57147.4 21856.3 A187.499 187.499 0.0 0 0 57299.5 22073.5 " />
<path d="M58601.8 14687.4 A187.499 187.499 0.0 0 0 58384.6 14839.5 " />
<path d="M60448.4 15013 A187.5 187.5 0.0 0 0 60665.6 14860.9 " />
<path d="M61902.8 7844.18 A187.5 187.5 0.0 0 0 61750.7 7626.97 " />
<path d="M60665 14860
L60805 14066
" />
<path d="M58601 14687
L60448 15013
" />
<path d="M57147 21856
L58384 14839
" />
<path d="M58038 22203
L57299 22073
" />
<path d="M54519 29199
L56735 29589
" />
<path d="M53065 36367
L54302 29351
" />
<path d="M56693.4 37388.4 A187.5 187.5 0.0 0 0 56541.3 37171.2 " />
<path d="M7328 47836
L6927 47142
" />
<path d="M8447 3946
L9254 3946
" />
<path d="M63530 9949
L62561 9778
" />
<path d="M61762.7 8638.52 A984.252 984.252 0.0 0 0 62561.1 9778.73 " />
<path d="M61945.8 13268.2 A984.254 984.254 0.0 0 0 60805.6 14066.6 " />
<path d="M62915 13439
L61945 13268
" />
<path d="M62915.1 13439.1 A1771.65 1771.65 0.0 0 0 63530.4 9949.65 " />
<path d="M13781.6 1978.35 A1771.65 1771.65 0.0 0 0 10238.3 1978.35 " />
<path d="M13781.6 2962.6 A984.252 984.252 0.0 0 0 14765.9 3946.85 " />
<path d="M13781 1978
L13781 2962
" />
<path d="M9254.04 3946.85 A984.252 984.252 0.0 0 0 10238.3 2962.6 " />
<path d="M10238 1978
L10238 2962
" />
<path d="M4730 47273
L5582 46781
" />
<path d="M2958 44205
L3810 43713
" />
<path d="M3810.87 43713.2 A984.251 984.251 0.0 0 0 4171.13 42368.7 " />
<path d="M6927.04 47142.1 A984.253 984.253 0.0 0 0 5582.52 46781.8 " />
<path d="M2958.48 44205.4 A1771.65 1771.65 0.0 0 0 4730.14 47274 " />
<path d="M8259 7509
L8259 4134
" />
<path d="M8447.45 3946.85 A187.504 187.504 0.0 0 0 8259.95 4134.35 " />
<path d="M55242.8 44558 A187.545 187.545 0.0 0 0 55456.2 44405.2 " />
<path d="M37659.7 41454.2 A375.002 375.002 0.0 0 0 37594.6 41448.5 " />
<path d="M39776 3946.85 A187.498 187.498 0.0 0 0 39960.6 3791.91 " />
<path d="M40276.7 3078.96 A187.498 187.498 0.0 0 0 40059.5 3231.05 " />
<path d="M47076.3 4468.3 A187.498 187.498 0.0 0 0 46924.2 4251.09 " />
<path d="M47011.2 4837.6 A187.504 187.504 0.0 0 0 47163.2 5054.81 " />
<path d="M40059 3231
L39960 3791
" />
<path d="M46924 4251
L40276 3078
" />
<path d="M47011 4837
L47076 4468
" />
<path d="M61750 7626
L47163 5054
" />
<path d="M7328.1 47836.8 A187.499 187.499 0.0 0 0 7584.22 47905.4 " />
<path d="M55456 44405
L56693 37388
" />
<path d="M37659 41454
L55242 44557
" />
<path d="M18883.5 41448.4 A375 375 0.0 0 0 18696 41498.6 " />
<path d="M18883 41448
L37594 41448
" />
<path d="M7584 47905
L18696 41498
" />
<path d="M60 35248
L4171 42368
" />
<path d="M14765 3946
L39775 3946
" />
<g >
</g>
<g >
</g>
<g >
</g>
<g >
</g>
<g >
</g>
<g >
</g>
<g >
</g>
<g >
</g>
<g >
</g>
<g >
</g>
<g >
</g>
<g >
</g>
<g >
</g>
<g >
</g>
<g >
</g>
<g >
</g>
<g >
</g>
<g >
</g>
<g >
</g>
<g >
</g>
<g >
</g>
<g >
</g>
<g >
</g>
<g >
</g>
</g>
<g style="fill:#000000; fill-opacity:0.0; 
stroke:#000000; stroke-width:47.2441; stroke-opacity:1; 
stroke-linecap:round; stroke-linejoin:round;">
<circle cx="3844.31" cy="45739.7" r="1023.62" /> 
<circle cx="12010" cy="1978.35" r="1023.62" /> 
<circle cx="63222.8" cy="11694.4" r="1023.62" /> 
</g>
<g style="fill:#000000; fill-opacity:0.0; 
stroke:#000000; stroke-width:0.393701; stroke-opacity:1; 
stroke-linecap:round; stroke-linejoin:round;">
<circle cx="12010" cy="18946.9" r="433.071" /> 
<circle cx="50983.3" cy="13623.4" r="433.071" /> 
<circle cx="10173.3" cy="37753.3" r="433.071" /> 
<circle cx="34510" cy="18946.9" r="433.071" /> 
<circle cx="30760" cy="33665.6" r="433.071" /> 
<circle cx="49290.9" cy="36178.5" r="433.071" /> 
<circle cx="38750" cy="5526.85" r="433.071" /> 
<g >
</g>
<g >
</g>
<g >
</g>
<g >
</g>
<g >
</g>
<g >
</g>
<g >
</g>
<g >
</g>
<g >
</g>
<g >
</g>
<g >
</g>
<g >
</g>
<g >
</g>
<g >
</g>
<g >
</g>
<g >
</g>
<g >
</g>
<g >
</g>
<g >
</g>
<g >
</g>
<g >
</g>
<g >
</g>
</g> 
</svg>
