<?xml version="1.0" standalone="no"?>
 <!DOCTYPE svg PUBLIC "-//W3C//DTD SVG 1.1//EN" 
 "http://www.w3.org/Graphics/SVG/1.1/DTD/svg11.dtd"> 
<svg xmlns="http://www.w3.org/2000/svg" version="1.1" 
    width="18.7223cm" height="12.3012cm" viewBox="0 0 73710 48430 ">
<title>SVG Picture created as angelina72_bottomplate-brd.svg date 2019/08/10 09:54:05 </title>
  <desc>Picture generated by PCBNEW </desc>
<g style="fill:#000000; fill-opacity:1;stroke:#000000; stroke-opacity:1;
stroke-linecap:round; stroke-linejoin:round; "
 transform="translate(0 0) scale(1 1)">
</g>
<g style="fill:#000000; fill-opacity:0.0; 
stroke:#000000; stroke-width:-0.000393701; stroke-opacity:1; 
stroke-linecap:round; stroke-linejoin:round;">
</g>
<g style="fill:#000000; fill-opacity:0.0; 
stroke:#000000; stroke-width:19.685; stroke-opacity:1; 
stroke-linecap:round; stroke-linejoin:round;">
<path d="M9.84291 35060.7 A375 375 0.0 0 0 60.0834 35248.2 " />
<path d="M8072.45 7696.85 A187.5 187.5 0.0 0 0 8259.95 7509.35 " />
<path d="M197.452 7696.85 A187.5 187.5 0.0 0 0 9.95157 7884.35 " />
<path d="M9 7884
L9 35060
" />
<path d="M8072 7696
L197 7696
" />
<path d="M14765 3946
L39775 3946
" />
<path d="M60 35248
L4171 42368
" />
<path d="M7584 47905
L18696 41498
" />
<path d="M18883 41448
L37594 41448
" />
<path d="M18883.5 41448.4 A375 375 0.0 0 0 18696 41498.6 " />
<path d="M37659 41454
L55242 44557
" />
<path d="M55456 44405
L56693 37388
" />
<path d="M56943 37051
L60266 37637
" />
<path d="M60266.9 37637.7 A187.5 187.5 0.0 0 0 60484.1 37485.6 " />
<path d="M60484 37485
L61688 30653
" />
<path d="M61905 30501
L64121 30892
" />
<path d="M64338 30740
L65576 23723
" />
<path d="M65424 23506
L64685 23375
" />
<path d="M61906 30501.4 A187.499 187.499 0.0 0 0 61688.8 30653.5 " />
<path d="M64121.8 30892.2 A187.499 187.499 0.0 0 0 64339 30740.1 " />
<path d="M65576.2 23723.3 A187.502 187.502 0.0 0 0 65424.1 23506.1 " />
<path d="M64533.4 23158.6 A187.5 187.5 0.0 0 0 64685.5 23375.9 " />
<path d="M7328.1 47836.8 A187.499 187.499 0.0 0 0 7584.22 47905.4 " />
<path d="M64533 23158
L65770 16141
" />
<path d="M65987 15989
L67834 16315
" />
<path d="M69148 9940
L69288 9146
" />
<path d="M69136 8929
L61935 7659
" />
<path d="M61935 7659
L47163 5054
" />
<path d="M47011 4837
L47076 4468
" />
<path d="M46924 4251
L40276 3078
" />
<path d="M40059 3231
L39960 3791
" />
<path d="M65987.9 15989.8 A187.498 187.498 0.0 0 0 65770.7 16141.9 " />
<path d="M67834.4 16315.4 A187.5 187.5 0.0 0 0 68051.6 16163.3 " />
<path d="M69288.9 9146.54 A187.501 187.501 0.0 0 0 69136.8 8929.33 " />
<path d="M47011.2 4837.6 A187.504 187.504 0.0 0 0 47163.2 5054.81 " />
<path d="M47076.3 4468.3 A187.498 187.498 0.0 0 0 46924.2 4251.09 " />
<path d="M40276.7 3078.96 A187.498 187.498 0.0 0 0 40059.5 3231.05 " />
<path d="M39776 3946.85 A187.498 187.498 0.0 0 0 39960.6 3791.91 " />
<path d="M37659.7 41454.2 A375.002 375.002 0.0 0 0 37594.6 41448.5 " />
<path d="M55242.8 44558 A187.545 187.545 0.0 0 0 55456.2 44405.2 " />
<path d="M8447.45 3946.85 A187.504 187.504 0.0 0 0 8259.95 4134.35 " />
<path d="M8259 7509
L8259 4134
" />
<path d="M2958.48 44205.4 A1771.65 1771.65 0.0 0 0 4730.14 47274 " />
<path d="M6927.04 47142.1 A984.253 984.253 0.0 0 0 5582.52 46781.8 " />
<path d="M3810.87 43713.2 A984.251 984.251 0.0 0 0 4171.13 42368.7 " />
<path d="M2958 44205
L3810 43713
" />
<path d="M4730 47273
L5582 46781
" />
<path d="M10238 1978
L10238 2962
" />
<path d="M9254.04 3946.85 A984.252 984.252 0.0 0 0 10238.3 2962.6 " />
<path d="M13781 1978
L13781 2962
" />
<path d="M70301.2 14741.5 A1771.65 1771.65 0.0 0 0 70916.5 11252 " />
<path d="M69331.9 14570.6 A984.251 984.251 0.0 0 0 68191.7 15369 " />
<path d="M69148.8 9940.88 A984.249 984.249 0.0 0 0 69947.2 11081.1 " />
<path d="M70301 14741
L69331 14570
" />
<path d="M13781.6 1978.35 A1771.65 1771.65 0.0 0 0 10238.3 1978.35 " />
<path d="M70916 11252
L69947 11081
" />
<path d="M13781.6 2962.6 A984.252 984.252 0.0 0 0 14765.9 3946.85 " />
<path d="M8447 3946
L9254 3946
" />
<path d="M7328 47836
L6927 47142
" />
<path d="M56943.1 37051.7 A187.495 187.495 0.0 0 0 56725.9 37203.8 " />
<path d="M56725 37203
L56693 37388
" />
<path d="M68051 16163
L68191 15368
" />
<g >
</g>
<g >
</g>
<g >
</g>
<g >
</g>
<g >
</g>
<g >
</g>
<g >
</g>
<g >
</g>
<g >
</g>
<g >
</g>
<g >
</g>
<g >
</g>
<g >
</g>
<g >
</g>
<g >
</g>
<g >
</g>
<g >
</g>
<g >
</g>
<g >
</g>
<g >
</g>
<g >
</g>
<g >
</g>
<g >
</g>
<g >
</g>
</g>
<g style="fill:#000000; fill-opacity:0.0; 
stroke:#000000; stroke-width:47.2441; stroke-opacity:1; 
stroke-linecap:round; stroke-linejoin:round;">
<circle cx="3844.31" cy="45739.7" r="1023.62" /> 
<circle cx="12010" cy="1978.35" r="1023.62" /> 
<circle cx="70608.8" cy="12996.7" r="1023.62" /> 
</g>
<g style="fill:#000000; fill-opacity:0.0; 
stroke:#000000; stroke-width:0.393701; stroke-opacity:1; 
stroke-linecap:round; stroke-linejoin:round;">
<circle cx="12010" cy="18946.9" r="433.071" /> 
<circle cx="50983.3" cy="13623.4" r="433.071" /> 
<circle cx="10173.3" cy="37753.3" r="433.071" /> 
<circle cx="34510" cy="18946.9" r="433.071" /> 
<circle cx="30760" cy="33665.6" r="433.071" /> 
<circle cx="49290.9" cy="36178.5" r="433.071" /> 
<circle cx="38750" cy="5526.85" r="433.071" /> 
<g >
</g>
<g >
</g>
<g >
</g>
<g >
</g>
<g >
</g>
<g >
</g>
<g >
</g>
<g >
</g>
<g >
</g>
<g >
</g>
<g >
</g>
<g >
</g>
<g >
</g>
<g >
</g>
<g >
</g>
<g >
</g>
<g >
</g>
<g >
</g>
<g >
</g>
<g >
</g>
<g >
</g>
<g >
</g>
</g> 
</svg>
