  0
SECTION
  2
HEADER
  9
$ACADVER
  1
AC1014
  9
$HANDSEED
  5
FFFF
  9
$MEASUREMENT
 70
     1
  0
ENDSEC
  0
SECTION
  2
TABLES
  0
TABLE
  2
VPORT
  5
8
330
0
100
AcDbSymbolTable
 70
     4
  0
VPORT
  5
2E
330
8
100
AcDbSymbolTableRecord
100
AcDbViewportTableRecord
  2
*ACTIVE
 70
     0
 10
0.0
 20
0.0
 11
1.0
 21
1.0
 12
210.0
 22
148.5
 13
0.0
 23
0.0
 14
10.0
 24
10.0
 15
10.0
 25
10.0
 16
0.0
 26
0.0
 36
1.0
 17
0.0
 27
0.0
 37
0.0
 40
341.0
 41
1.24
 42
50.0
 43
0.0
 44
0.0
 50
0.0
 51
0.0
 71
     0
 72
   100
 73
     1
 74
     3
 75
     0
 76
     0
 77
     0
 78
     0
  0
ENDTAB
  0
TABLE
  2
LTYPE
  5
5
330
0
100
AcDbSymbolTable
 70
     1
  0
LTYPE
  5
14
330
5
100
AcDbSymbolTableRecord
100
AcDbLinetypeTableRecord
  2
BYBLOCK
 70
     0
  3

 72
    65
 73
     0
 40
0.0
  0
LTYPE
  5
15
330
5
100
AcDbSymbolTableRecord
100
AcDbLinetypeTableRecord
  2
BYLAYER
 70
     0
  3

 72
    65
 73
     0
 40
0.0
  0
LTYPE
  5
16
330
5
100
AcDbSymbolTableRecord
100
AcDbLinetypeTableRecord
  2
CONTINUOUS
 70
     0
  3
Solid line
 72
    65
 73
     0
 40
0.0
  0
ENDTAB
  0
TABLE
  2
LAYER
  5
2
100
AcDbSymbolTable
 70
2
  0
LAYER
  5
50
100
AcDbSymbolTableRecord
100
AcDbLayerTableRecord
  2
0
 70
0
  6
CONTINUOUS
  0
LAYER
  5
51
100
AcDbSymbolTableRecord
100
AcDbLayerTableRecord
  2
レイヤー_1
 70
0
  6
CONTINUOUS
  0
ENDTAB
  0
TABLE
  2
STYLE
  5
3
330
0
100
AcDbSymbolTable
 70
     1
  0
STYLE
  5
11
330
3
100
AcDbSymbolTableRecord
100
AcDbTextStyleTableRecord
  2
STANDARD
 70
     0
 40
0.0
 41
1.0
 50
0.0
 71
     0
 42
2.5
  3
txt
  4

  0
ENDTAB
  0
TABLE
  2
VIEW
  5
6
330
0
100
AcDbSymbolTable
 70
     0
  0
ENDTAB
  0
TABLE
  2
UCS
  5
7
330
0
100
AcDbSymbolTable
 70
     0
  0
ENDTAB
  0
TABLE
  2
APPID
  5
9
330
0
100
AcDbSymbolTable
 70
     2
  0
APPID
  5
12
330
9
100
AcDbSymbolTableRecord
100
AcDbRegAppTableRecord
  2
ACAD
 70
     0
  0
ENDTAB
  0
TABLE
  2
DIMSTYLE
  5
A
330
0
100
AcDbSymbolTable
 70
     1
  0
DIMSTYLE
105
27
330
A
100
AcDbSymbolTableRecord
100
AcDbDimStyleTableRecord
  2
ISO-25
 70
     0
  3

  4

  5

  6

  7

 40
1.0
 41
2.5
 42
0.625
 43
3.75
 44
1.25
 45
0.0
 46
0.0
 47
0.0
 48
0.0
140
2.5
141
2.5
142
0.0
143
0.03937007874016
144
1.0
145
0.0
146
1.0
147
0.625
 71
     0
 72
     0
 73
     0
 74
     0
 75
     0
 76
     0
 77
     1
 78
     8
170
     0
171
     3
172
     1
173
     0
174
     0
175
     0
176
     0
177
     0
178
     0
270
     2
271
     2
272
     2
273
     2
274
     3
340
11
275
     0
280
     0
281
     0
282
     0
283
     0
284
     8
285
     0
286
     0
287
     3
288
     0
  0
ENDTAB
  0
TABLE
  2
BLOCK_RECORD
  5
1
330
0
100
AcDbSymbolTable
 70
     1
  0
BLOCK_RECORD
  5
1F
330
1
100
AcDbSymbolTableRecord
100
AcDbBlockTableRecord
  2
*MODEL_SPACE
  0
BLOCK_RECORD
  5
1B
330
1
100
AcDbSymbolTableRecord
100
AcDbBlockTableRecord
  2
*PAPER_SPACE
  0
ENDTAB
  0
ENDSEC
  0
SECTION
  2
BLOCKS
  0
BLOCK
  5
20
330
1F
100
AcDbEntity
  8
0
100
AcDbBlockBegin
  2
*MODEL_SPACE
 70
     0
 10
0.0
 20
0.0
 30
0.0
  3
*MODEL_SPACE
  1

  0
ENDBLK
  5
21
330
1F
100
AcDbEntity
  8
0
100
AcDbBlockEnd
  0
BLOCK
  5
1C
330
1B
100
AcDbEntity
 67
     1
  8
0
100
AcDbBlockBegin
  2
*PAPER_SPACE
  1

  0
ENDBLK
  5
1D
330
1B
100
AcDbEntity
 67
     1
  8
0
100
AcDbBlockEnd
  0
ENDSEC
  0
SECTION
  2
ENTITIES
  0
LINE
  5
100
100
AcDbEntity
  8
レイヤー_1
 62
7
100
AcDbLine
 10
171.193031
 20
175.140219
 30
0.0
 11
156.599887
 21
187.385321
 31
0.0
  0
LINE
  5
101
100
AcDbEntity
  8
レイヤー_1
 62
7
100
AcDbLine
 10
156.599887
 20
187.385321
 30
0.0
 11
168.844990
 21
201.978467
 31
0.0
  0
LINE
  5
102
100
AcDbEntity
  8
レイヤー_1
 62
7
100
AcDbLine
 10
168.844990
 20
201.978467
 30
0.0
 11
183.438134
 21
189.733365
 31
0.0
  0
LINE
  5
103
100
AcDbEntity
  8
レイヤー_1
 62
7
100
AcDbLine
 10
183.438134
 20
189.733365
 30
0.0
 11
171.193031
 21
175.140219
 31
0.0
  0
LINE
  5
104
100
AcDbEntity
  8
レイヤー_1
 62
7
100
AcDbLine
 10
158.947901
 20
160.547042
 30
0.0
 11
144.354757
 21
172.792144
 31
0.0
  0
LINE
  5
105
100
AcDbEntity
  8
レイヤー_1
 62
7
100
AcDbLine
 10
144.354757
 20
172.792144
 30
0.0
 11
156.599860
 21
187.385290
 31
0.0
  0
LINE
  5
106
100
AcDbEntity
  8
レイヤー_1
 62
7
100
AcDbLine
 10
156.599860
 20
187.385290
 30
0.0
 11
171.193004
 21
175.140188
 31
0.0
  0
LINE
  5
107
100
AcDbEntity
  8
レイヤー_1
 62
7
100
AcDbLine
 10
171.193004
 20
175.140188
 30
0.0
 11
158.947901
 21
160.547042
 31
0.0
  0
LINE
  5
108
100
AcDbEntity
  8
レイヤー_1
 62
7
100
AcDbLine
 10
144.354762
 20
172.792140
 30
0.0
 11
129.761618
 21
185.037242
 31
0.0
  0
LINE
  5
109
100
AcDbEntity
  8
レイヤー_1
 62
7
100
AcDbLine
 10
129.761618
 20
185.037242
 30
0.0
 11
142.006721
 21
199.630387
 31
0.0
  0
LINE
  5
10a
100
AcDbEntity
  8
レイヤー_1
 62
7
100
AcDbLine
 10
142.006721
 20
199.630387
 30
0.0
 11
156.599866
 21
187.385285
 31
0.0
  0
LINE
  5
10b
100
AcDbEntity
  8
レイヤー_1
 62
7
100
AcDbLine
 10
156.599866
 20
187.385285
 30
0.0
 11
144.354762
 21
172.792140
 31
0.0
  0
LINE
  5
10c
100
AcDbEntity
  8
レイヤー_1
 62
7
100
AcDbLine
 10
170.691300
 20
252.604191
 30
0.0
 11
151.930715
 21
255.912188
 31
0.0
  0
LINE
  5
10d
100
AcDbEntity
  8
レイヤー_1
 62
7
100
AcDbLine
 10
151.930715
 20
255.912188
 30
0.0
 11
155.238713
 21
274.672775
 31
0.0
  0
LINE
  5
10e
100
AcDbEntity
  8
レイヤー_1
 62
7
100
AcDbLine
 10
155.238713
 20
274.672775
 30
0.0
 11
173.999298
 21
271.364778
 31
0.0
  0
LINE
  5
10f
100
AcDbEntity
  8
レイヤー_1
 62
7
100
AcDbLine
 10
173.999298
 20
271.364778
 30
0.0
 11
170.691300
 21
252.604191
 31
0.0
  0
LINE
  5
110
100
AcDbEntity
  8
レイヤー_1
 62
7
100
AcDbLine
 10
151.930722
 20
255.912187
 30
0.0
 11
133.170134
 21
259.220185
 31
0.0
  0
LINE
  5
111
100
AcDbEntity
  8
レイヤー_1
 62
7
100
AcDbLine
 10
133.170134
 20
259.220185
 30
0.0
 11
136.478131
 21
277.980772
 31
0.0
  0
LINE
  5
112
100
AcDbEntity
  8
レイヤー_1
 62
7
100
AcDbLine
 10
136.478131
 20
277.980772
 30
0.0
 11
155.238720
 21
274.672774
 31
0.0
  0
LINE
  5
113
100
AcDbEntity
  8
レイヤー_1
 62
7
100
AcDbLine
 10
155.238720
 20
274.672774
 30
0.0
 11
151.930722
 21
255.912187
 31
0.0
  0
LINE
  5
114
100
AcDbEntity
  8
レイヤー_1
 62
7
100
AcDbLine
 10
133.170144
 20
259.220183
 30
0.0
 11
114.409560
 21
262.528180
 31
0.0
  0
LINE
  5
115
100
AcDbEntity
  8
レイヤー_1
 62
7
100
AcDbLine
 10
114.409560
 20
262.528180
 30
0.0
 11
117.717557
 21
281.288767
 31
0.0
  0
LINE
  5
116
100
AcDbEntity
  8
レイヤー_1
 62
7
100
AcDbLine
 10
117.717557
 20
281.288767
 30
0.0
 11
136.478142
 21
277.980770
 31
0.0
  0
LINE
  5
117
100
AcDbEntity
  8
レイヤー_1
 62
7
100
AcDbLine
 10
136.478142
 20
277.980770
 30
0.0
 11
133.170144
 21
259.220183
 31
0.0
  0
LINE
  5
118
100
AcDbEntity
  8
レイヤー_1
 62
7
100
AcDbLine
 10
114.409567
 20
262.528179
 30
0.0
 11
95.648978
 21
265.836177
 31
0.0
  0
LINE
  5
119
100
AcDbEntity
  8
レイヤー_1
 62
7
100
AcDbLine
 10
95.648978
 20
265.836177
 30
0.0
 11
98.956976
 21
284.596764
 31
0.0
  0
LINE
  5
11a
100
AcDbEntity
  8
レイヤー_1
 62
7
100
AcDbLine
 10
98.956976
 20
284.596764
 30
0.0
 11
117.717564
 21
281.288766
 31
0.0
  0
LINE
  5
11b
100
AcDbEntity
  8
レイヤー_1
 62
7
100
AcDbLine
 10
117.717564
 20
281.288766
 30
0.0
 11
114.409567
 21
262.528179
 31
0.0
  0
LINE
  5
11c
100
AcDbEntity
  8
レイヤー_1
 62
7
100
AcDbLine
 10
158.003009
 20
235.497604
 30
0.0
 11
139.242424
 21
238.805601
 31
0.0
  0
LINE
  5
11d
100
AcDbEntity
  8
レイヤー_1
 62
7
100
AcDbLine
 10
139.242424
 20
238.805601
 30
0.0
 11
142.550422
 21
257.566188
 31
0.0
  0
LINE
  5
11e
100
AcDbEntity
  8
レイヤー_1
 62
7
100
AcDbLine
 10
142.550422
 20
257.566188
 30
0.0
 11
161.311006
 21
254.258191
 31
0.0
  0
LINE
  5
11f
100
AcDbEntity
  8
レイヤー_1
 62
7
100
AcDbLine
 10
161.311006
 20
254.258191
 30
0.0
 11
158.003009
 21
235.497604
 31
0.0
  0
LINE
  5
120
100
AcDbEntity
  8
レイヤー_1
 62
7
100
AcDbLine
 10
139.242441
 20
238.805598
 30
0.0
 11
120.481852
 21
242.113596
 31
0.0
  0
LINE
  5
121
100
AcDbEntity
  8
レイヤー_1
 62
7
100
AcDbLine
 10
120.481852
 20
242.113596
 30
0.0
 11
123.789850
 21
260.874183
 31
0.0
  0
LINE
  5
122
100
AcDbEntity
  8
レイヤー_1
 62
7
100
AcDbLine
 10
123.789850
 20
260.874183
 30
0.0
 11
142.550438
 21
257.566185
 31
0.0
  0
LINE
  5
123
100
AcDbEntity
  8
レイヤー_1
 62
7
100
AcDbLine
 10
142.550438
 20
257.566185
 30
0.0
 11
139.242441
 21
238.805598
 31
0.0
  0
LINE
  5
124
100
AcDbEntity
  8
レイヤー_1
 62
7
100
AcDbLine
 10
120.481863
 20
242.113595
 30
0.0
 11
101.721278
 21
245.421592
 31
0.0
  0
LINE
  5
125
100
AcDbEntity
  8
レイヤー_1
 62
7
100
AcDbLine
 10
101.721278
 20
245.421592
 30
0.0
 11
105.029276
 21
264.182179
 31
0.0
  0
LINE
  5
126
100
AcDbEntity
  8
レイヤー_1
 62
7
100
AcDbLine
 10
105.029276
 20
264.182179
 30
0.0
 11
123.789861
 21
260.874181
 31
0.0
  0
LINE
  5
127
100
AcDbEntity
  8
レイヤー_1
 62
7
100
AcDbLine
 10
123.789861
 20
260.874181
 30
0.0
 11
120.481863
 21
242.113595
 31
0.0
  0
LINE
  5
128
100
AcDbEntity
  8
レイヤー_1
 62
7
100
AcDbLine
 10
101.721285
 20
245.421591
 30
0.0
 11
82.960696
 21
248.729589
 31
0.0
  0
LINE
  5
129
100
AcDbEntity
  8
レイヤー_1
 62
7
100
AcDbLine
 10
82.960696
 20
248.729589
 30
0.0
 11
86.268694
 21
267.490175
 31
0.0
  0
LINE
  5
12a
100
AcDbEntity
  8
レイヤー_1
 62
7
100
AcDbLine
 10
86.268694
 20
267.490175
 30
0.0
 11
105.029283
 21
264.182177
 31
0.0
  0
LINE
  5
12b
100
AcDbEntity
  8
レイヤー_1
 62
7
100
AcDbLine
 10
105.029283
 20
264.182177
 30
0.0
 11
101.721285
 21
245.421591
 31
0.0
  0
LINE
  5
12c
100
AcDbEntity
  8
レイヤー_1
 62
7
100
AcDbLine
 10
154.695009
 20
216.737007
 30
0.0
 11
135.934424
 21
220.045004
 31
0.0
  0
LINE
  5
12d
100
AcDbEntity
  8
レイヤー_1
 62
7
100
AcDbLine
 10
135.934424
 20
220.045004
 30
0.0
 11
139.242422
 21
238.805591
 31
0.0
  0
LINE
  5
12e
100
AcDbEntity
  8
レイヤー_1
 62
7
100
AcDbLine
 10
139.242422
 20
238.805591
 30
0.0
 11
158.003007
 21
235.497593
 31
0.0
  0
LINE
  5
12f
100
AcDbEntity
  8
レイヤー_1
 62
7
100
AcDbLine
 10
158.003007
 20
235.497593
 30
0.0
 11
154.695009
 21
216.737007
 31
0.0
  0
LINE
  5
130
100
AcDbEntity
  8
レイヤー_1
 62
7
100
AcDbLine
 10
135.934441
 20
220.045001
 30
0.0
 11
117.173852
 21
223.352999
 31
0.0
  0
LINE
  5
131
100
AcDbEntity
  8
レイヤー_1
 62
7
100
AcDbLine
 10
117.173852
 20
223.352999
 30
0.0
 11
120.481850
 21
242.113586
 31
0.0
  0
LINE
  5
132
100
AcDbEntity
  8
レイヤー_1
 62
7
100
AcDbLine
 10
120.481850
 20
242.113586
 30
0.0
 11
139.242439
 21
238.805588
 31
0.0
  0
LINE
  5
133
100
AcDbEntity
  8
レイヤー_1
 62
7
100
AcDbLine
 10
139.242439
 20
238.805588
 30
0.0
 11
135.934441
 21
220.045001
 31
0.0
  0
LINE
  5
134
100
AcDbEntity
  8
レイヤー_1
 62
7
100
AcDbLine
 10
117.173863
 20
223.352997
 30
0.0
 11
98.413279
 21
226.660994
 31
0.0
  0
LINE
  5
135
100
AcDbEntity
  8
レイヤー_1
 62
7
100
AcDbLine
 10
98.413279
 20
226.660994
 30
0.0
 11
101.721276
 21
245.421581
 31
0.0
  0
LINE
  5
136
100
AcDbEntity
  8
レイヤー_1
 62
7
100
AcDbLine
 10
101.721276
 20
245.421581
 30
0.0
 11
120.481861
 21
242.113584
 31
0.0
  0
LINE
  5
137
100
AcDbEntity
  8
レイヤー_1
 62
7
100
AcDbLine
 10
120.481861
 20
242.113584
 30
0.0
 11
117.173863
 21
223.352997
 31
0.0
  0
LINE
  5
138
100
AcDbEntity
  8
レイヤー_1
 62
7
100
AcDbLine
 10
98.413286
 20
226.660993
 30
0.0
 11
79.652697
 21
229.968991
 31
0.0
  0
LINE
  5
139
100
AcDbEntity
  8
レイヤー_1
 62
7
100
AcDbLine
 10
79.652697
 20
229.968991
 30
0.0
 11
82.960695
 21
248.729578
 31
0.0
  0
LINE
  5
13a
100
AcDbEntity
  8
レイヤー_1
 62
7
100
AcDbLine
 10
82.960695
 20
248.729578
 30
0.0
 11
101.721283
 21
245.421580
 31
0.0
  0
LINE
  5
13b
100
AcDbEntity
  8
レイヤー_1
 62
7
100
AcDbLine
 10
101.721283
 20
245.421580
 30
0.0
 11
98.413286
 21
226.660993
 31
0.0
  0
LINE
  5
13c
100
AcDbEntity
  8
レイヤー_1
 62
7
100
AcDbLine
 10
160.767305
 20
196.322420
 30
0.0
 11
142.006720
 21
199.630417
 31
0.0
  0
LINE
  5
13d
100
AcDbEntity
  8
レイヤー_1
 62
7
100
AcDbLine
 10
142.006720
 20
199.630417
 30
0.0
 11
145.314718
 21
218.391004
 31
0.0
  0
LINE
  5
13e
100
AcDbEntity
  8
レイヤー_1
 62
7
100
AcDbLine
 10
145.314718
 20
218.391004
 30
0.0
 11
164.075303
 21
215.083007
 31
0.0
  0
LINE
  5
13f
100
AcDbEntity
  8
レイヤー_1
 62
7
100
AcDbLine
 10
164.075303
 20
215.083007
 30
0.0
 11
160.767305
 21
196.322420
 31
0.0
  0
LINE
  5
140
100
AcDbEntity
  8
レイヤー_1
 62
7
100
AcDbLine
 10
142.006727
 20
199.630416
 30
0.0
 11
123.246139
 21
202.938414
 31
0.0
  0
LINE
  5
141
100
AcDbEntity
  8
レイヤー_1
 62
7
100
AcDbLine
 10
123.246139
 20
202.938414
 30
0.0
 11
126.554136
 21
221.699001
 31
0.0
  0
LINE
  5
142
100
AcDbEntity
  8
レイヤー_1
 62
7
100
AcDbLine
 10
126.554136
 20
221.699001
 30
0.0
 11
145.314725
 21
218.391003
 31
0.0
  0
LINE
  5
143
100
AcDbEntity
  8
レイヤー_1
 62
7
100
AcDbLine
 10
145.314725
 20
218.391003
 30
0.0
 11
142.006727
 21
199.630416
 31
0.0
  0
LINE
  5
144
100
AcDbEntity
  8
レイヤー_1
 62
7
100
AcDbLine
 10
123.246149
 20
202.938412
 30
0.0
 11
104.485565
 21
206.246410
 31
0.0
  0
LINE
  5
145
100
AcDbEntity
  8
レイヤー_1
 62
7
100
AcDbLine
 10
104.485565
 20
206.246410
 30
0.0
 11
107.793562
 21
225.006996
 31
0.0
  0
LINE
  5
146
100
AcDbEntity
  8
レイヤー_1
 62
7
100
AcDbLine
 10
107.793562
 20
225.006996
 30
0.0
 11
126.554147
 21
221.698999
 31
0.0
  0
LINE
  5
147
100
AcDbEntity
  8
レイヤー_1
 62
7
100
AcDbLine
 10
126.554147
 20
221.698999
 30
0.0
 11
123.246149
 21
202.938412
 31
0.0
  0
LINE
  5
148
100
AcDbEntity
  8
レイヤー_1
 62
7
100
AcDbLine
 10
104.485572
 20
206.246408
 30
0.0
 11
85.724983
 21
209.554406
 31
0.0
  0
LINE
  5
149
100
AcDbEntity
  8
レイヤー_1
 62
7
100
AcDbLine
 10
85.724983
 20
209.554406
 30
0.0
 11
89.032981
 21
228.314993
 31
0.0
  0
LINE
  5
14a
100
AcDbEntity
  8
レイヤー_1
 62
7
100
AcDbLine
 10
89.032981
 20
228.314993
 30
0.0
 11
107.793569
 21
225.006995
 31
0.0
  0
LINE
  5
14b
100
AcDbEntity
  8
レイヤー_1
 62
7
100
AcDbLine
 10
107.793569
 20
225.006995
 30
0.0
 11
104.485572
 21
206.246408
 31
0.0
  0
LINE
  5
14c
100
AcDbEntity
  8
レイヤー_1
 62
7
100
AcDbLine
 10
129.318445
 20
182.523826
 30
0.0
 11
105.867707
 21
186.658824
 31
0.0
  0
LINE
  5
14d
100
AcDbEntity
  8
レイヤー_1
 62
7
100
AcDbLine
 10
105.867707
 20
186.658824
 30
0.0
 11
109.175705
 21
205.419410
 31
0.0
  0
LINE
  5
14e
100
AcDbEntity
  8
レイヤー_1
 62
7
100
AcDbLine
 10
109.175705
 20
205.419410
 30
0.0
 11
132.626443
 21
201.284412
 31
0.0
  0
LINE
  5
14f
100
AcDbEntity
  8
レイヤー_1
 62
7
100
AcDbLine
 10
132.626443
 20
201.284412
 30
0.0
 11
129.318445
 21
182.523826
 31
0.0
  0
LINE
  5
150
100
AcDbEntity
  8
レイヤー_1
 62
7
100
AcDbLine
 10
105.867740
 20
186.658818
 30
0.0
 11
82.417002
 21
190.793816
 31
0.0
  0
LINE
  5
151
100
AcDbEntity
  8
レイヤー_1
 62
7
100
AcDbLine
 10
82.417002
 20
190.793816
 30
0.0
 11
85.725000
 21
209.554402
 31
0.0
  0
LINE
  5
152
100
AcDbEntity
  8
レイヤー_1
 62
7
100
AcDbLine
 10
85.725000
 20
209.554402
 30
0.0
 11
109.175738
 21
205.419404
 31
0.0
  0
LINE
  5
153
100
AcDbEntity
  8
レイヤー_1
 62
7
100
AcDbLine
 10
109.175738
 20
205.419404
 30
0.0
 11
105.867740
 21
186.658818
 31
0.0
  0
LINE
  5
154
100
AcDbEntity
  8
レイヤー_1
 62
7
100
AcDbLine
 10
85.724970
 20
209.554398
 30
0.0
 11
66.674969
 21
209.554398
 31
0.0
  0
LINE
  5
155
100
AcDbEntity
  8
レイヤー_1
 62
7
100
AcDbLine
 10
66.674969
 20
209.554398
 30
0.0
 11
66.674969
 21
228.604397
 31
0.0
  0
LINE
  5
156
100
AcDbEntity
  8
レイヤー_1
 62
7
100
AcDbLine
 10
66.674969
 20
228.604397
 30
0.0
 11
85.724970
 21
228.604397
 31
0.0
  0
LINE
  5
157
100
AcDbEntity
  8
レイヤー_1
 62
7
100
AcDbLine
 10
85.724970
 20
228.604397
 30
0.0
 11
85.724970
 21
209.554398
 31
0.0
  0
LINE
  5
158
100
AcDbEntity
  8
レイヤー_1
 62
7
100
AcDbLine
 10
66.674950
 20
209.554398
 30
0.0
 11
47.624953
 21
209.554398
 31
0.0
  0
LINE
  5
159
100
AcDbEntity
  8
レイヤー_1
 62
7
100
AcDbLine
 10
47.624953
 20
209.554398
 30
0.0
 11
47.624953
 21
228.604397
 31
0.0
  0
LINE
  5
15a
100
AcDbEntity
  8
レイヤー_1
 62
7
100
AcDbLine
 10
47.624953
 20
228.604397
 30
0.0
 11
66.674950
 21
228.604397
 31
0.0
  0
LINE
  5
15b
100
AcDbEntity
  8
レイヤー_1
 62
7
100
AcDbLine
 10
66.674950
 20
228.604397
 30
0.0
 11
66.674950
 21
209.554398
 31
0.0
  0
LINE
  5
15c
100
AcDbEntity
  8
レイヤー_1
 62
7
100
AcDbLine
 10
47.624960
 20
209.554398
 30
0.0
 11
28.574959
 21
209.554398
 31
0.0
  0
LINE
  5
15d
100
AcDbEntity
  8
レイヤー_1
 62
7
100
AcDbLine
 10
28.574959
 20
209.554398
 30
0.0
 11
28.574959
 21
228.604397
 31
0.0
  0
LINE
  5
15e
100
AcDbEntity
  8
レイヤー_1
 62
7
100
AcDbLine
 10
28.574959
 20
228.604397
 30
0.0
 11
47.624960
 21
228.604397
 31
0.0
  0
LINE
  5
15f
100
AcDbEntity
  8
レイヤー_1
 62
7
100
AcDbLine
 10
47.624960
 20
228.604397
 30
0.0
 11
47.624960
 21
209.554398
 31
0.0
  0
LINE
  5
160
100
AcDbEntity
  8
レイヤー_1
 62
7
100
AcDbLine
 10
79.771840
 20
228.609192
 30
0.0
 11
60.721839
 21
228.609192
 31
0.0
  0
LINE
  5
161
100
AcDbEntity
  8
レイヤー_1
 62
7
100
AcDbLine
 10
60.721839
 20
228.609192
 30
0.0
 11
60.721839
 21
247.659191
 31
0.0
  0
LINE
  5
162
100
AcDbEntity
  8
レイヤー_1
 62
7
100
AcDbLine
 10
60.721839
 20
247.659191
 30
0.0
 11
79.771840
 21
247.659191
 31
0.0
  0
LINE
  5
163
100
AcDbEntity
  8
レイヤー_1
 62
7
100
AcDbLine
 10
79.771840
 20
247.659191
 30
0.0
 11
79.771840
 21
228.609192
 31
0.0
  0
LINE
  5
164
100
AcDbEntity
  8
レイヤー_1
 62
7
100
AcDbLine
 10
60.717550
 20
228.621094
 30
0.0
 11
41.667553
 21
228.621094
 31
0.0
  0
LINE
  5
165
100
AcDbEntity
  8
レイヤー_1
 62
7
100
AcDbLine
 10
41.667553
 20
228.621094
 30
0.0
 11
41.667553
 21
247.671093
 31
0.0
  0
LINE
  5
166
100
AcDbEntity
  8
レイヤー_1
 62
7
100
AcDbLine
 10
41.667553
 20
247.671093
 30
0.0
 11
60.717550
 21
247.671093
 31
0.0
  0
LINE
  5
167
100
AcDbEntity
  8
レイヤー_1
 62
7
100
AcDbLine
 10
60.717550
 20
247.671093
 30
0.0
 11
60.717550
 21
228.621094
 31
0.0
  0
LINE
  5
168
100
AcDbEntity
  8
レイヤー_1
 62
7
100
AcDbLine
 10
41.667560
 20
228.621094
 30
0.0
 11
22.617559
 21
228.621094
 31
0.0
  0
LINE
  5
169
100
AcDbEntity
  8
レイヤー_1
 62
7
100
AcDbLine
 10
22.617559
 20
228.621094
 30
0.0
 11
22.617559
 21
247.671093
 31
0.0
  0
LINE
  5
16a
100
AcDbEntity
  8
レイヤー_1
 62
7
100
AcDbLine
 10
22.617559
 20
247.671093
 30
0.0
 11
41.667560
 21
247.671093
 31
0.0
  0
LINE
  5
16b
100
AcDbEntity
  8
レイヤー_1
 62
7
100
AcDbLine
 10
41.667560
 20
247.671093
 30
0.0
 11
41.667560
 21
228.621094
 31
0.0
  0
LINE
  5
16c
100
AcDbEntity
  8
レイヤー_1
 62
7
100
AcDbLine
 10
82.867450
 20
247.654411
 30
0.0
 11
63.817449
 21
247.654411
 31
0.0
  0
LINE
  5
16d
100
AcDbEntity
  8
レイヤー_1
 62
7
100
AcDbLine
 10
63.817449
 20
247.654411
 30
0.0
 11
63.817449
 21
266.704410
 31
0.0
  0
LINE
  5
16e
100
AcDbEntity
  8
レイヤー_1
 62
7
100
AcDbLine
 10
63.817449
 20
266.704410
 30
0.0
 11
82.867450
 21
266.704410
 31
0.0
  0
LINE
  5
16f
100
AcDbEntity
  8
レイヤー_1
 62
7
100
AcDbLine
 10
82.867450
 20
266.704410
 30
0.0
 11
82.867450
 21
247.654411
 31
0.0
  0
LINE
  5
170
100
AcDbEntity
  8
レイヤー_1
 62
7
100
AcDbLine
 10
63.817440
 20
247.654411
 30
0.0
 11
44.767443
 21
247.654411
 31
0.0
  0
LINE
  5
171
100
AcDbEntity
  8
レイヤー_1
 62
7
100
AcDbLine
 10
44.767443
 20
247.654411
 30
0.0
 11
44.767443
 21
266.704410
 31
0.0
  0
LINE
  5
172
100
AcDbEntity
  8
レイヤー_1
 62
7
100
AcDbLine
 10
44.767443
 20
266.704410
 30
0.0
 11
63.817440
 21
266.704410
 31
0.0
  0
LINE
  5
173
100
AcDbEntity
  8
レイヤー_1
 62
7
100
AcDbLine
 10
63.817440
 20
266.704410
 30
0.0
 11
63.817440
 21
247.654411
 31
0.0
  0
LINE
  5
174
100
AcDbEntity
  8
レイヤー_1
 62
7
100
AcDbLine
 10
44.767450
 20
247.659599
 30
0.0
 11
25.717449
 21
247.659599
 31
0.0
  0
LINE
  5
175
100
AcDbEntity
  8
レイヤー_1
 62
7
100
AcDbLine
 10
25.717449
 20
247.659599
 30
0.0
 11
25.717449
 21
266.709598
 31
0.0
  0
LINE
  5
176
100
AcDbEntity
  8
レイヤー_1
 62
7
100
AcDbLine
 10
25.717449
 20
266.709598
 30
0.0
 11
44.767450
 21
266.709598
 31
0.0
  0
LINE
  5
177
100
AcDbEntity
  8
レイヤー_1
 62
7
100
AcDbLine
 10
44.767450
 20
266.709598
 30
0.0
 11
44.767450
 21
247.659599
 31
0.0
  0
LINE
  5
178
100
AcDbEntity
  8
レイヤー_1
 62
7
100
AcDbLine
 10
95.964200
 20
267.418905
 30
0.0
 11
76.914199
 21
267.418905
 31
0.0
  0
LINE
  5
179
100
AcDbEntity
  8
レイヤー_1
 62
7
100
AcDbLine
 10
76.914199
 20
267.418905
 30
0.0
 11
76.914199
 21
286.468904
 31
0.0
  0
LINE
  5
17a
100
AcDbEntity
  8
レイヤー_1
 62
7
100
AcDbLine
 10
76.914199
 20
286.468904
 30
0.0
 11
95.964200
 21
286.468904
 31
0.0
  0
LINE
  5
17b
100
AcDbEntity
  8
レイヤー_1
 62
7
100
AcDbLine
 10
95.964200
 20
286.468904
 30
0.0
 11
95.964200
 21
267.418905
 31
0.0
  0
LINE
  5
17c
100
AcDbEntity
  8
レイヤー_1
 62
7
100
AcDbLine
 10
76.914360
 20
266.710402
 30
0.0
 11
57.864359
 21
266.710402
 31
0.0
  0
LINE
  5
17d
100
AcDbEntity
  8
レイヤー_1
 62
7
100
AcDbLine
 10
57.864359
 20
266.710402
 30
0.0
 11
57.864359
 21
285.760401
 31
0.0
  0
LINE
  5
17e
100
AcDbEntity
  8
レイヤー_1
 62
7
100
AcDbLine
 10
57.864359
 20
285.760401
 30
0.0
 11
76.914360
 21
285.760401
 31
0.0
  0
LINE
  5
17f
100
AcDbEntity
  8
レイヤー_1
 62
7
100
AcDbLine
 10
76.914360
 20
285.760401
 30
0.0
 11
76.914360
 21
266.710402
 31
0.0
  0
LINE
  5
180
100
AcDbEntity
  8
レイヤー_1
 62
7
100
AcDbLine
 10
57.864340
 20
266.710402
 30
0.0
 11
38.814343
 21
266.710402
 31
0.0
  0
LINE
  5
181
100
AcDbEntity
  8
レイヤー_1
 62
7
100
AcDbLine
 10
38.814343
 20
266.710402
 30
0.0
 11
38.814343
 21
285.760401
 31
0.0
  0
LINE
  5
182
100
AcDbEntity
  8
レイヤー_1
 62
7
100
AcDbLine
 10
38.814343
 20
285.760401
 30
0.0
 11
57.864340
 21
285.760401
 31
0.0
  0
LINE
  5
183
100
AcDbEntity
  8
レイヤー_1
 62
7
100
AcDbLine
 10
57.864340
 20
285.760401
 30
0.0
 11
57.864340
 21
266.710402
 31
0.0
  0
LINE
  5
184
100
AcDbEntity
  8
レイヤー_1
 62
7
100
AcDbLine
 10
38.814320
 20
266.710402
 30
0.0
 11
19.764319
 21
266.710402
 31
0.0
  0
LINE
  5
185
100
AcDbEntity
  8
レイヤー_1
 62
7
100
AcDbLine
 10
19.764319
 20
266.710402
 30
0.0
 11
19.764319
 21
285.760401
 31
0.0
  0
LINE
  5
186
100
AcDbEntity
  8
レイヤー_1
 62
7
100
AcDbLine
 10
19.764319
 20
285.760401
 30
0.0
 11
38.814320
 21
285.760401
 31
0.0
  0
LINE
  5
187
100
AcDbEntity
  8
レイヤー_1
 62
7
100
AcDbLine
 10
38.814320
 20
285.760401
 30
0.0
 11
38.814320
 21
266.710402
 31
0.0
  0
LINE
  5
188
100
AcDbEntity
  8
レイヤー_1
 62
7
100
AcDbLine
 10
80.962460
 20
190.504400
 30
0.0
 11
61.912463
 21
190.504400
 31
0.0
  0
LINE
  5
189
100
AcDbEntity
  8
レイヤー_1
 62
7
100
AcDbLine
 10
61.912463
 20
190.504400
 30
0.0
 11
61.912463
 21
209.554399
 31
0.0
  0
LINE
  5
18a
100
AcDbEntity
  8
レイヤー_1
 62
7
100
AcDbLine
 10
61.912463
 20
209.554399
 30
0.0
 11
80.962460
 21
209.554399
 31
0.0
  0
LINE
  5
18b
100
AcDbEntity
  8
レイヤー_1
 62
7
100
AcDbLine
 10
80.962460
 20
209.554399
 30
0.0
 11
80.962460
 21
190.504400
 31
0.0
  0
LINE
  5
18c
100
AcDbEntity
  8
レイヤー_1
 62
7
100
AcDbLine
 10
61.912470
 20
190.504400
 30
0.0
 11
38.099947
 21
190.504400
 31
0.0
  0
LINE
  5
18d
100
AcDbEntity
  8
レイヤー_1
 62
7
100
AcDbLine
 10
38.099947
 20
190.504400
 30
0.0
 11
38.099947
 21
209.554399
 31
0.0
  0
LINE
  5
18e
100
AcDbEntity
  8
レイヤー_1
 62
7
100
AcDbLine
 10
38.099947
 20
209.554399
 30
0.0
 11
61.912470
 21
209.554399
 31
0.0
  0
LINE
  5
18f
100
AcDbEntity
  8
レイヤー_1
 62
7
100
AcDbLine
 10
61.912470
 20
209.554399
 30
0.0
 11
61.912470
 21
190.504400
 31
0.0
  0
ENDSEC
  0
SECTION
  2
OBJECTS
  0
DICTIONARY
  5
C
330
0
100
AcDbDictionary
  3
ACAD_GROUP
350
D
  3
ACAD_MLINESTYLE
350
17
  0
DICTIONARY
  5
D
330
C
100
AcDbDictionary
  0
DICTIONARY
  5
1A
330
C
100
AcDbDictionary
  0
DICTIONARY
  5
17
330
C
100
AcDbDictionary
  3
STANDARD
350
18
  0
DICTIONARY
  5
19
330
C
100
AcDbDictionary
  0
ENDSEC
  0
EOF
